<?xml version="1.0" standalone="no"?>
<!DOCTYPE svg PUBLIC "-//W3C//DTD SVG 20010904//EN"
 "http://www.w3.org/TR/2001/REC-SVG-20010904/DTD/svg10.dtd">
<svg version="1.0" xmlns="http://www.w3.org/2000/svg"
 width="399.000000pt" height="400.000000pt" viewBox="0 0 399.000000 400.000000"
 preserveAspectRatio="xMidYMid meet">

<g transform="translate(0.000000,400.000000) scale(0.100000,-0.100000)"
fill="#000000" stroke="none">
<path d="M1618 2411 c-79 -20 -86 -25 -70 -51 8 -14 9 -27 2 -45 -6 -15 -10
-35 -10 -45 0 -18 3 -18 46 -5 25 7 54 21 63 29 24 22 40 20 85 -10 21 -14 59
-29 84 -33 38 -5 48 -10 50 -28 3 -21 -28 -41 -47 -29 -4 3 -17 -4 -27 -16
-11 -11 -34 -27 -51 -35 -18 -7 -33 -17 -33 -21 2 -24 51 -61 100 -75 94 -27
141 -64 184 -147 40 -76 56 -79 56 -12 0 45 -13 66 -55 91 l-35 20 2 83 c2 97
-14 138 -65 164 -36 18 -67 43 -67 54 0 4 9 10 20 13 27 7 26 48 -2 74 -26 24
-87 43 -133 42 -16 0 -60 -8 -97 -18z"/>
<path d="M1639 2227 c6 -8 7 -18 3 -22 -4 -5 -1 -5 6 -1 10 6 10 11 1 22 -6 8
-14 14 -16 14 -3 0 0 -6 6 -13z"/>
<path d="M1735 2229 c-4 -6 -5 -12 -2 -15 2 -3 7 2 10 11 7 17 1 20 -8 4z"/>
<path d="M1536 2188 c-12 -40 -22 -118 -16 -128 10 -16 50 -3 50 16 0 20 28
17 33 -3 4 -17 5 -17 6 0 0 9 9 18 19 18 9 1 4 5 -13 9 l-30 8 33 1 c38 1 44
26 8 35 -14 3 -38 18 -55 32 -22 19 -32 22 -35 12z"/>
<path d="M1668 2093 c12 -2 30 -2 40 0 9 3 -1 5 -23 4 -22 0 -30 -2 -17 -4z"/>
<path d="M1719 2038 c-1 -24 -1 -66 1 -95 l2 -52 -111 0 -111 0 2 69 c1 39 -2
73 -5 77 -4 3 -7 -28 -7 -70 l0 -77 -49 0 -50 0 -4 43 -4 42 -1 -42 c-2 -37
-5 -42 -29 -46 l-28 -4 27 -2 27 -1 0 -101 0 -100 -59 2 c-33 1 -63 -1 -67 -4
-3 -4 23 -7 60 -7 l66 0 4 -52 3 -53 2 52 c2 45 5 52 25 56 l22 4 -22 2 c-22
1 -23 4 -23 101 l0 100 49 0 c43 0 50 -3 54 -22 l4 -23 2 23 c1 21 4 22 110
22 96 0 110 -2 114 -17 3 -10 5 35 6 100 0 64 -1 117 -4 117 -3 0 -6 -19 -6
-42z"/>
<path d="M1600 1990 c0 -5 5 -10 10 -10 6 0 10 5 10 10 0 6 -4 10 -10 10 -5 0
-10 -4 -10 -10z"/>
<path d="M1265 1780 c-3 -5 -1 -10 4 -10 6 0 11 5 11 10 0 6 -2 10 -4 10 -3 0
-8 -4 -11 -10z"/>
<path d="M1308 1783 c12 -2 30 -2 40 0 9 3 -1 5 -23 4 -22 0 -30 -2 -17 -4z"/>
<path d="M1572 1495 c0 -16 2 -22 5 -12 2 9 2 23 0 30 -3 6 -5 -1 -5 -18z"/>
<path d="M1562 1430 c0 -19 2 -27 5 -17 2 9 2 25 0 35 -3 9 -5 1 -5 -18z"/>
<path d="M2903 1385 c0 -33 2 -45 4 -27 2 18 2 45 0 60 -2 15 -4 0 -4 -33z"/>
<path d="M2780 1398 c0 -3 16 -25 35 -48 19 -23 35 -38 35 -33 -1 10 -70 91
-70 81z"/>
<path d="M1552 1360 c0 -19 2 -27 5 -17 2 9 2 25 0 35 -3 9 -5 1 -5 -18z"/>
<path d="M1542 1290 c0 -19 2 -27 5 -17 2 9 2 25 0 35 -3 9 -5 1 -5 -18z"/>
<path d="M2720 1316 c0 -3 9 -10 20 -16 11 -6 20 -8 20 -6 0 3 -9 10 -20 16
-11 6 -20 8 -20 6z"/>
<path d="M2777 1279 c7 -7 15 -10 18 -7 3 3 -2 9 -12 12 -14 6 -15 5 -6 -5z"/>
<path d="M2900 1215 c-11 -39 -10 -62 10 -180 13 -73 26 -139 30 -146 6 -8 24
1 61 29 l53 41 43 -40 c23 -21 45 -39 49 -39 20 0 69 49 85 87 10 25 19 47 19
49 0 3 -16 -7 -35 -22 l-35 -26 -46 42 c-30 27 -49 39 -57 33 -7 -5 -31 -24
-55 -42 -24 -19 -45 -31 -48 -29 -2 3 -15 67 -29 143 -13 76 -26 140 -28 142
-2 2 -10 -17 -17 -42z"/>
<path d="M1532 1220 c0 -19 2 -27 5 -17 2 9 2 25 0 35 -3 9 -5 1 -5 -18z"/>
<path d="M1522 1150 c0 -19 2 -27 5 -17 2 9 2 25 0 35 -3 9 -5 1 -5 -18z"/>
<path d="M3198 1137 l-37 -32 24 -18 c13 -9 26 -13 30 -8 12 21 34 91 27 91
-4 -1 -24 -15 -44 -33z"/>
<path d="M1512 1070 c0 -19 2 -27 5 -17 2 9 2 25 0 35 -3 9 -5 1 -5 -18z"/>
<path d="M1503 995 c0 -22 2 -30 4 -17 2 12 2 30 0 40 -3 9 -5 -1 -4 -23z"/>
<path d="M1493 915 c0 -22 2 -30 4 -17 2 12 2 30 0 40 -3 9 -5 -1 -4 -23z"/>
<path d="M1483 835 c0 -22 2 -30 4 -17 2 12 2 30 0 40 -3 9 -5 -1 -4 -23z"/>
<path d="M1473 745 c0 -22 2 -30 4 -17 2 12 2 30 0 40 -3 9 -5 -1 -4 -23z"/>
<path d="M1463 660 c0 -25 2 -35 4 -22 2 12 2 32 0 45 -2 12 -4 2 -4 -23z"/>
<path d="M1453 565 c0 -22 2 -30 4 -17 2 12 2 30 0 40 -3 9 -5 -1 -4 -23z"/>
<path d="M1443 470 c0 -25 2 -35 4 -22 2 12 2 32 0 45 -2 12 -4 2 -4 -23z"/>
<path d="M1450 345 c0 -14 36 -21 77 -16 6 1 14 -3 18 -9 8 -13 135 -13 135 0
0 6 -26 10 -57 10 -32 0 -80 7 -107 15 -61 19 -66 19 -66 0z"/>
<path d="M1820 321 c0 -6 55 -10 126 -10 81 -1 123 3 119 9 -8 13 -245 13
-245 1z"/>
</g>
</svg>
